<svg width="251" height="65" viewBox="0 0 251 65" fill="none" xmlns="http://www.w3.org/2000/svg">
<path d="M45.7614 6.56381C44.7352 5.75101 43.5167 5.10624 42.1756 4.66633C40.8345 4.22642 39.397 4 37.9453 4C36.4937 4 35.0562 4.22642 33.7151 4.66633C32.374 5.10624 31.1555 5.75101 30.1293 6.56381L27.9995 8.24987L25.8696 6.56381C23.7967 4.92278 20.9852 4.00085 18.0536 4.00085C15.122 4.00085 12.3105 4.92278 10.2375 6.56381C8.16457 8.20485 7 10.4306 7 12.7513C7 15.0721 8.16457 17.2978 10.2375 18.9389L27.9995 33L45.7614 18.9389C46.7881 18.1265 47.6026 17.1619 48.1583 16.1002C48.714 15.0385 49 13.9005 49 12.7513C49 11.6021 48.714 10.4642 48.1583 9.40251C47.6026 8.34083 46.7881 7.37623 45.7614 6.56381Z" fill="url(#paint0_radial_94_4453)"/>
<path d="M3 42.8888L3.00008 16.8046C3.00008 16.0286 3.84542 15.5483 4.51199 15.9456L28.2117 30.0686C28.5447 30.2671 28.9626 30.2552 29.2838 30.038L51.4398 15.0551C52.1039 14.606 53 15.0817 53 15.8834V42.9198C53 43.2675 52.8194 43.5902 52.523 43.7721L29.8347 57.6955C29.5281 57.8837 29.1439 57.8927 28.8289 57.719L3.5172 43.7645C3.19815 43.5886 3 43.2531 3 42.8888Z" stroke="#DDDDDD" stroke-width="6" stroke-linecap="round" stroke-linejoin="round"/>
<path d="M29 38.1873L29.0972 48.2367" stroke="#DDDDDD" stroke-width="4" stroke-linecap="round" stroke-linejoin="round"/>
<path d="M13 35.1873V22.1873L17.9075 25.1873V36.6873L15.5 34.1873L13 35.1873Z" fill="#DDDDDD" stroke="#DDDDDD" stroke-width="2" stroke-linecap="round"/>
<path d="M99.05 50C98.85 49.2667 98.7 48.4833 98.6 47.65C98.5333 46.8167 98.5 45.85 98.5 44.75H98.3V32.7C98.3 31.6667 97.95 30.8667 97.25 30.3C96.5833 29.7 95.5833 29.4 94.25 29.4C92.9833 29.4 91.9667 29.6167 91.2 30.05C90.4667 30.4833 89.9833 31.1167 89.75 31.95H82.6C82.9333 29.65 84.1167 27.75 86.15 26.25C88.1833 24.75 90.9667 24 94.5 24C98.1667 24 100.967 24.8167 102.9 26.45C104.833 28.0833 105.8 30.4333 105.8 33.5V44.75C105.8 45.5833 105.85 46.4333 105.95 47.3C106.083 48.1333 106.283 49.0333 106.55 50H99.05ZM90.15 50.5C87.6167 50.5 85.6 49.8667 84.1 48.6C82.6 47.3 81.85 45.5833 81.85 43.45C81.85 41.0833 82.7333 39.1833 84.5 37.75C86.3 36.2833 88.8 35.3333 92 34.9L99.45 33.85V38.2L93.25 39.15C91.9167 39.35 90.9333 39.7167 90.3 40.25C89.6667 40.7833 89.35 41.5167 89.35 42.45C89.35 43.2833 89.65 43.9167 90.25 44.35C90.85 44.7833 91.65 45 92.65 45C94.2167 45 95.55 44.5833 96.65 43.75C97.75 42.8833 98.3 41.8833 98.3 40.75L99 44.75C98.2667 46.65 97.15 48.0833 95.65 49.05C94.15 50.0167 92.3167 50.5 90.15 50.5ZM118.496 50.5C116.696 50.5 115.146 50.1167 113.846 49.35C112.579 48.55 111.613 47.5 110.946 46.2C110.279 44.8667 109.946 43.3833 109.946 41.75V24.5H117.446V40.3C117.446 41.7 117.796 42.75 118.496 43.45C119.196 44.15 120.179 44.5 121.446 44.5C122.579 44.5 123.579 44.2333 124.446 43.7C125.313 43.1667 125.996 42.4333 126.496 41.5C127.029 40.5333 127.296 39.4333 127.296 38.2L127.946 44.35C127.113 46.1833 125.896 47.6667 124.296 48.8C122.696 49.9333 120.763 50.5 118.496 50.5ZM127.446 50V44H127.296V24.5H134.796V50H127.446ZM152.424 50.55C149.158 50.55 146.724 49.7667 145.124 48.2C143.558 46.6 142.774 44.1833 142.774 40.95V18.8L150.274 16V41.2C150.274 42.3333 150.591 43.1833 151.224 43.75C151.858 44.3167 152.841 44.6 154.174 44.6C154.674 44.6 155.141 44.55 155.574 44.45C156.008 44.35 156.441 44.2333 156.874 44.1V49.8C156.441 50.0333 155.824 50.2167 155.024 50.35C154.258 50.4833 153.391 50.55 152.424 50.55ZM138.024 30.2V24.5H156.874V30.2H138.024Z" fill="#DDDDDD"/>
<path d="M161.369 50V14H168.869V50H161.369ZM179.119 50V34.2C179.119 32.8 178.752 31.75 178.019 31.05C177.319 30.35 176.286 30 174.919 30C173.752 30 172.702 30.2667 171.769 30.8C170.869 31.3333 170.152 32.0667 169.619 33C169.119 33.9333 168.869 35.0333 168.869 36.3L168.219 30.15C169.052 28.2833 170.269 26.8 171.869 25.7C173.502 24.5667 175.502 24 177.869 24C180.702 24 182.869 24.8 184.369 26.4C185.869 27.9667 186.619 30.0833 186.619 32.75V50H179.119ZM204.326 50.5C201.493 50.5 199.026 49.95 196.926 48.85C194.826 47.7167 193.193 46.15 192.026 44.15C190.893 42.15 190.326 39.85 190.326 37.25C190.326 34.6167 190.893 32.3167 192.026 30.35C193.193 28.35 194.81 26.8 196.876 25.7C198.943 24.5667 201.343 24 204.076 24C206.71 24 208.993 24.5333 210.926 25.6C212.86 26.6667 214.36 28.15 215.426 30.05C216.493 31.95 217.026 34.1833 217.026 36.75C217.026 37.2833 217.01 37.7833 216.976 38.25C216.943 38.6833 216.893 39.1 216.826 39.5H194.726V34.55H210.776L209.476 35.45C209.476 33.3833 208.976 31.8667 207.976 30.9C207.01 29.9 205.676 29.4 203.976 29.4C202.01 29.4 200.476 30.0667 199.376 31.4C198.31 32.7333 197.776 34.7333 197.776 37.4C197.776 40 198.31 41.9333 199.376 43.2C200.476 44.4667 202.11 45.1 204.276 45.1C205.476 45.1 206.51 44.9 207.376 44.5C208.243 44.1 208.893 43.45 209.326 42.55H216.376C215.543 45.0167 214.11 46.9667 212.076 48.4C210.076 49.8 207.493 50.5 204.326 50.5ZM221.037 50V24.5H228.387V30.5H228.537V50H221.037ZM228.537 36.7L227.887 30.65C228.487 28.4833 229.47 26.8333 230.837 25.7C232.204 24.5667 233.904 24 235.937 24C236.57 24 237.037 24.0667 237.337 24.2V31.2C237.17 31.1333 236.937 31.1 236.637 31.1C236.337 31.0667 235.97 31.05 235.537 31.05C233.137 31.05 231.37 31.4833 230.237 32.35C229.104 33.1833 228.537 34.6333 228.537 36.7ZM244.309 50.25C243.042 50.25 242.026 49.8833 241.259 49.15C240.492 48.3833 240.109 47.45 240.109 46.35C240.109 45.25 240.492 44.3333 241.259 43.6C242.026 42.8333 243.042 42.45 244.309 42.45C245.509 42.45 246.492 42.8333 247.259 43.6C248.026 44.3333 248.409 45.25 248.409 46.35C248.409 47.45 248.026 48.3833 247.259 49.15C246.492 49.8833 245.509 50.25 244.309 50.25Z" fill="url(#paint1_linear_94_4453)"/>
<defs>
<radialGradient id="paint0_radial_94_4453" cx="0" cy="0" r="1" gradientUnits="userSpaceOnUse" gradientTransform="translate(28 18.5) rotate(90) scale(14.5 21)">
<stop stop-color="#7896C5"/>
<stop offset="1" stop-color="#9C56B5"/>
</radialGradient>
<linearGradient id="paint1_linear_94_4453" x1="80" y1="32.5" x2="251" y2="32.5" gradientUnits="userSpaceOnUse">
<stop offset="0.413462" stop-color="#7A9ED8"/>
<stop offset="0.923077" stop-color="#9C56B5"/>
</linearGradient>
</defs>
</svg>
